<svg width="327" height="138" viewBox="0 0 327 138" fill="none" xmlns="http://www.w3.org/2000/svg">
<rect y="0.200195" width="327" height="137" fill="white"/>
<path fill-rule="evenodd" clip-rule="evenodd" d="M189.679 96.3524C195.913 96.3524 199 93.2651 199 87.1497V50.9029C199 44.7876 195.913 41.7002 189.679 41.7002H138.321C132.117 41.7002 129 44.7579 129 50.9029V87.1497C129 93.2948 132.117 96.3524 138.321 96.3524H189.679ZM194.221 83.9139L178.309 68.9521C176.973 67.7647 175.429 67.1412 173.826 67.1412C172.193 67.1412 170.739 67.7053 169.373 68.9224L155.955 80.9156L150.463 75.9284C149.216 74.83 147.851 74.2362 146.455 74.2362C145.12 74.2362 143.873 74.8003 142.626 75.8987L133.779 83.8843V51.1404C133.779 48.053 135.412 46.4797 138.381 46.4797H189.619C192.558 46.4797 194.221 48.053 194.221 51.1404V83.9139ZM151.116 69.2787C154.946 69.2787 158.092 66.1319 158.092 62.2727C158.092 58.4432 154.946 55.2668 151.116 55.2668C147.257 55.2668 144.11 58.4432 144.11 62.2727C144.11 66.1319 147.257 69.2787 151.116 69.2787Z" fill="#D9D9D9"/>
</svg>
